<?xml version="1.0" encoding="utf-8"?>
<!-- Generator: Adobe Illustrator 25.2.1, SVG Export Plug-In . SVG Version: 6.00 Build 0)  -->
<svg version="1.1" id="레이어_1" xmlns="http://www.w3.org/2000/svg" xmlns:xlink="http://www.w3.org/1999/xlink" x="0px"
	 y="0px" viewBox="0 0 610 554" style="enable-background:new 0 0 610 554;" xml:space="preserve">
<style type="text/css">
	.st0{fill:#FFFFFF;}
	.st1{fill:none;}
	.st2{fill:#926B9E;}
	.st3{fill:#8C6797;}
	.st4{fill:#E6C06D;}
</style>
<circle class="st0" cx="305" cy="268.55" r="215.84"/>
<g>
	<rect x="279.86" y="234.3" class="st1" width="13.69" height="6.56"/>
	<polygon class="st1" points="189.79,246.51 189.79,275.52 201.73,274.03 191.18,246.51 	"/>
	<path class="st2" d="M239.63,226.07c-0.37-0.31-0.99-0.46-1.85-0.46h-12.21c-0.86,0-1.48,0.16-1.85,0.46
		c-0.37,0.31-0.55,0.92-0.55,1.85v43.45l17.01-2.11v-41.34C240.19,227,240,226.38,239.63,226.07z"/>
	<path class="st2" d="M200.43,229.77c-0.49-1.29-1.16-2.31-1.99-3.05c-0.83-0.74-2.14-1.11-3.93-1.11h-18.12
		c-1.6,0-2.61,0.31-3.01,0.93c-0.4,0.62-0.6,1.73-0.6,3.33v47.77l17.02-2.11v-29.01h1.39l10.55,27.53l14.37-1.79L200.43,229.77z"/>
	<path class="st2" d="M252.58,253.07h68.15c0.86,0,1.48-0.15,1.85-0.46c0.37-0.31,0.55-0.93,0.55-1.85v-7.58
		c0-0.92-0.19-1.54-0.55-1.85c-0.37-0.31-0.99-0.46-1.85-0.46h-9.43v-6.56h8.97c0.86,0,1.48-0.15,1.85-0.46
		c0.37-0.31,0.55-0.93,0.55-1.85v-7.58c0-0.92-0.18-1.54-0.55-1.85c-0.37-0.31-0.99-0.46-1.85-0.46h-67.22
		c-0.86,0-1.48,0.16-1.85,0.46c-0.37,0.31-0.55,0.92-0.55,1.85v7.58c0,0.92,0.18,1.54,0.55,1.85c0.37,0.31,0.99,0.46,1.85,0.46h9.06
		v6.56h-9.53c-0.86,0-1.48,0.16-1.85,0.46c-0.37,0.31-0.55,0.92-0.55,1.85v7.58c0,0.92,0.19,1.54,0.55,1.85
		C251.1,252.92,251.72,253.07,252.58,253.07z M283.09,233.04h9.86c1.78,0,3.23,1.45,3.23,3.23v1.37c0,1.78-1.45,3.23-3.23,3.23
		h-9.86c-1.78,0-3.23-1.45-3.23-3.23v-1.37C279.86,234.49,281.3,233.04,283.09,233.04z"/>
	<path class="st2" d="M325.72,256.22h-78.04c-0.86,0-1.48,0.16-1.85,0.46c-0.37,0.31-0.55,0.92-0.55,1.85v8.14
		c0,0.93,0.18,1.54,0.55,1.85c0.02,0.01,0.05,0.02,0.07,0.03l82.21-10.21c-0.03-0.8-0.19-1.37-0.53-1.66
		C327.2,256.37,326.59,256.22,325.72,256.22z"/>
	<path class="st2" d="M347.08,254.64c0-0.68,0.09-1.16,0.28-1.43c0.19-0.28,0.62-0.42,1.3-0.42h24.06l6.88-0.85
		c0.19-0.35,0.32-0.79,0.32-1.46v-18.49c0-3.39-0.66-5.89-1.99-7.49c-1.33-1.6-3.65-2.41-6.98-2.41h-39.21
		c-0.86,0-1.48,0.16-1.85,0.46c-0.37,0.31-0.55,0.92-0.55,1.85v8.51c0,0.93,0.18,1.54,0.55,1.85c0.37,0.31,0.99,0.46,1.85,0.46
		h28.94c0.62,0,1.02,0.09,1.2,0.28c0.18,0.19,0.28,0.59,0.28,1.2v2.4c0,0.55-0.11,0.94-0.32,1.16c-0.22,0.22-0.66,0.32-1.34,0.32
		h-28.76c-0.86,0-1.48,0.16-1.85,0.46s-0.55,0.92-0.55,1.85v13.87c0,0.49,0.02,1.08,0.04,1.54l17.74-1.74L347.08,254.64z"/>
	<path class="st2" d="M407.74,224.41c0-0.92-0.18-1.54-0.55-1.85c-0.37-0.31-0.99-0.46-1.85-0.46h-12.95
		c-0.86,0-1.48,0.16-1.85,0.46c-0.37,0.31-0.55,0.92-0.55,1.85v26.24l17.75-2.21V224.41z"/>
	<path class="st2" d="M377.51,252.79c0.86,0,1.48-0.15,1.85-0.46c0.1-0.09,0.16-0.26,0.24-0.39l-6.88,0.85H377.51z"/>
</g>
<g>
	<path class="st3" d="M262.6,295.51c0.02,2.43,0.04,4.86,0.05,7.29c0.02,2.43-0.04,4.86-0.17,7.29
		c-5.33-6.93-10.56-13.81-15.71-20.65c-0.78-1.04-1.56-2.1-2.34-3.15l-6.32,0.7c6.81,9.1,13.69,18.18,20.66,27.25
		c0.3,0.51,0.67,0.92,1.11,1.24c0.59,0.51,1.18,0.97,1.77,1.38c0.59,0.41,1.29,0.61,2.09,0.61c1.03-0.01,1.81-0.29,2.36-0.83
		c0.55-0.55,1-1.17,1.36-1.88c0.22-0.39,0.39-1.27,0.53-2.64c0.14-1.37,0.23-3.02,0.29-4.94c0.06-1.92,0.1-3.98,0.12-6.19
		c0.02-2.21,0.04-4.3,0.06-6.28c0.02-1.98,0.03-3.74,0.02-5.28c-0.01-1.53-0.02-2.62-0.02-3.26l-0.02-2.54l-5.83,0.65
		C262.64,288,262.64,291.74,262.6,295.51z"/>
	<path class="st3" d="M207.78,301.16l0.11,9.69c0,0.64-0.04,1.33-0.11,2.06c-0.07,0.73-0.04,1.42,0.11,2.06
		c0.15,0.7,0.44,1.29,0.88,1.78c0.44,0.48,1.1,0.72,1.98,0.72c0.81,0,1.48-0.24,2.03-0.72c0.55-0.48,0.82-1.07,0.82-1.78
		c0-7.16-0.04-14.28-0.11-21.34c-0.01-1.32-0.05-2.66-0.06-3.98l-5.78,0.6C207.69,293.86,207.73,297.49,207.78,301.16z"/>
	<path class="st3" d="M343.85,314.93h-0.44c-5.5,0.45-10.96,0.73-16.38,0.86c-5.42,0.13-10.88,0.19-16.38,0.19
		c-0.66,0-1.87,0-3.63,0s-3.57-0.02-5.44-0.05c-1.87-0.03-3.61-0.14-5.22-0.34c-1.61-0.19-2.57-0.48-2.86-0.86
		c-0.15-0.19-0.29-0.62-0.44-1.29c-0.15-0.67-0.27-1.41-0.38-2.21c-0.11-0.8-0.22-1.58-0.33-2.35c-0.11-0.77-0.16-1.31-0.16-1.63
		h4.84c12.6,0,25.24-0.19,37.92-0.58c1.03,0,1.98-0.1,2.86-0.29c0.81-0.19,1.52-0.5,2.14-0.91c0.62-0.42,1.12-0.94,1.48-1.58
		c0.22-0.45,0.4-1.04,0.55-1.78c0.15-0.73,0.26-1.52,0.33-2.35c0.07-0.83,0.13-1.65,0.16-2.45c0.04-0.8,0.06-1.45,0.06-1.97
		c0-1.28-0.07-2.37-0.22-3.26c-0.15-0.89-0.46-1.63-0.94-2.21c-0.48-0.58-1.19-0.99-2.14-1.25c-0.95-0.25-2.2-0.42-3.74-0.48
		c-1.54-0.06-3.08-0.1-4.62-0.1c-1.54,0-3.08,0-4.62,0c-4.47,0-8.9,0.08-13.3,0.24c-4.4,0.16-8.83,0.37-13.3,0.62
		c-2.13,0.13-4.23,0.24-6.32,0.34c-2.09,0.1-4.2,0.24-6.32,0.43c-0.81,0.13-1.47,0.42-1.98,0.86c-0.51,0.45-0.77,1.02-0.77,1.73
		c0,0.64,0.26,1.17,0.77,1.58c0.51,0.42,1.13,0.62,1.87,0.62h0.33c6.81-0.38,13.55-0.75,20.22-1.1c6.67-0.35,13.41-0.53,20.22-0.53
		c1.46,0,2.99,0,4.56,0c1.58,0,3.09,0.06,4.56,0.19v0.38l0.11,0.57c0,0.51,0,1.12,0,1.82c0,0.7-0.04,1.42-0.11,2.16
		c-0.07,0.74-0.15,1.44-0.22,2.11c-0.07,0.67-0.15,1.23-0.22,1.68c-0.59,0.13-1.5,0.19-2.75,0.19c-1.25,0-2.2,0-2.86,0l-19.45,0.29
		c-3.3,0.06-6.54,0.11-9.73,0.14c-3.19,0.03-6.43,0.05-9.73,0.05c-1.76,0-3.1,0.29-4.01,0.86c-0.92,0.58-1.37,1.7-1.37,3.36
		c0,1.15,0.09,2.3,0.28,3.45c0.18,1.15,0.35,2.27,0.49,3.36c0.36,2.49,1.28,4.24,2.75,5.23c1.46,0.99,3.59,1.58,6.37,1.77
		c3.22,0.19,6.45,0.3,9.67,0.34c3.22,0.03,6.45,0.05,9.67,0.05c3.52,0,7.01-0.03,10.5-0.1c3.48-0.06,6.98-0.22,10.5-0.48
		c2.49-0.13,4.87-0.32,7.14-0.58c0.81-0.13,1.45-0.42,1.92-0.86c0.48-0.45,0.71-1.02,0.71-1.73c0-0.64-0.26-1.17-0.77-1.58
		C345.21,315.14,344.58,314.93,343.85,314.93z"/>
	<path class="st3" d="M281.25,282.41c3.96,0.13,7.93,0.22,11.93,0.29c3.99,0.07,7.97,0.1,11.93,0.1c4.91,0,9.82-0.03,14.73-0.1
		c4.91-0.06,9.82-0.16,14.73-0.29c2.93-0.06,5.86-0.13,8.79-0.19c2.93-0.06,5.86-0.1,8.79-0.1c0.81,0,1.52-0.26,2.14-0.77
		c0.62-0.51,0.93-1.12,0.93-1.82c0-0.7-0.24-1.21-0.71-1.54c-0.48-0.32-1.06-0.54-1.76-0.67c-0.7-0.13-1.41-0.18-2.14-0.14
		c-0.73,0.03-1.36,0.05-1.87,0.05c-2.35,0-4.67,0.05-6.98,0.14c-2.31,0.1-4.63,0.18-6.98,0.24c-4.91,0.13-9.8,0.22-14.67,0.29
		c-1.13,0.01-2.28,0.01-3.41,0.02l-41.15,4.28L281.25,282.41z"/>
	<path class="st3" d="M445.89,312.53c-0.66-0.26-1.32-0.48-1.98-0.67c-0.66-0.19-1.32-0.45-1.98-0.77
		c-4.18-1.79-8.34-3.93-12.47-6.43c-4.14-2.49-8.04-4.99-11.71-7.48l-3.19-2.21l-0.77-0.58l0.66-0.86c0.22-0.38,0.59-0.91,1.1-1.58
		c0.51-0.67,1.02-1.38,1.54-2.11c0.51-0.74,0.97-1.45,1.37-2.16c0.4-0.7,0.61-1.25,0.61-1.63c0-0.58-0.28-1.09-0.83-1.54
		c-0.55-0.45-1.15-0.67-1.81-0.67c-1.17,0-2.09,0.45-2.75,1.34c-0.81,1.15-1.59,2.34-2.36,3.55c-0.77,1.22-1.59,2.4-2.47,3.55
		c-2.79,3.64-5.77,6.84-8.96,9.59c-3.19,2.75-6.98,5.21-11.38,7.39c-1.25,0.64-2.46,1.2-3.63,1.68c-1.17,0.48-2.35,0.97-3.52,1.49
		c-0.59,0.32-1.04,0.65-1.37,1.01c-0.33,0.35-0.49,0.82-0.49,1.39c0,0.58,0.27,1.09,0.82,1.54c0.55,0.45,1.15,0.67,1.81,0.67
		c0.36,0,0.82-0.08,1.37-0.24c0.55-0.16,1.12-0.37,1.7-0.62c0.59-0.26,1.13-0.5,1.65-0.72c0.51-0.22,0.95-0.43,1.32-0.62
		c4.54-1.98,8.64-4.32,12.31-7c3.66-2.68,7-5.76,10-9.21c1.1,0.83,2.6,1.86,4.5,3.07c1.91,1.22,3.97,2.51,6.21,3.89
		c2.23,1.37,4.56,2.75,6.98,4.12c2.42,1.38,4.71,2.62,6.87,3.74c2.16,1.12,4.08,2.03,5.77,2.73c1.68,0.7,2.97,1.06,3.85,1.06
		c0.8,0,1.52-0.26,2.14-0.77c0.62-0.51,0.93-1.12,0.93-1.82C447.76,313.68,447.14,312.98,445.89,312.53z"/>
	<path class="st3" d="M379.35,281.93c2.38,0.01,4.56,0,6.54-0.03c2.56-0.03,5.09-0.16,7.58-0.37c2.49-0.22,5.01-0.44,7.58-0.66
		l6.15-0.65c0.73-0.14,1.35-0.43,1.86-0.88c0.51-0.45,0.76-1.03,0.75-1.74c-0.01-0.58-0.29-1.08-0.84-1.52
		c-0.55-0.44-1.16-0.66-1.82-0.65l-0.44,0.01c-3.51,0.3-7.01,0.64-10.49,1.03c-3.48,0.39-6.97,0.61-10.49,0.65
		c-0.66,0.01-1.72,0.01-3.19-0.01c-1.47-0.01-2.99-0.06-4.56-0.14c-1.58-0.08-3.03-0.24-4.35-0.48c-1.32-0.24-2.17-0.58-2.54-1.03
		c-0.67-0.82-1.12-1.92-1.36-3.29c-0.07-0.41-0.12-0.77-0.18-1.15l-5.69,0.66c0.21,1.27,0.5,2.51,0.96,3.67
		c0.45,1.02,0.88,1.84,1.29,2.48c0.41,0.63,0.93,1.17,1.56,1.61c0.63,0.44,1.35,0.8,2.16,1.08c0.81,0.28,1.8,0.54,2.98,0.78
		C374.79,281.71,376.97,281.92,379.35,281.93z"/>
	<path class="st3" d="M428.63,282v5.76c0,0.58,0.28,1.09,0.83,1.53c0.55,0.45,1.15,0.67,1.81,0.67c1.39,0,2.27-0.42,2.64-1.25
		c0.37-0.83,0.55-1.7,0.55-2.59c0-4.99-0.07-9.93-0.22-14.82c-0.08-2.77-0.09-5.55-0.12-8.32l-5.86,0.61
		c0.02,2.27,0.05,4.51,0.05,6.8L428.63,282z"/>
</g>
<g>
	<path class="st4" d="M135.94,290.57l-0.17-1.38c-0.1-0.84,0.5-1.61,1.34-1.71l350.31-42.74c0.84-0.1,1.61,0.5,1.71,1.34l0.17,1.38
		c0.1,0.84-0.5,1.61-1.34,1.71l-350.31,42.74C136.81,292.02,136.04,291.42,135.94,290.57z"/>
</g>
</svg>
