<?xml version="1.0" encoding="utf-8"?>
<!-- Generator: Adobe Illustrator 25.2.1, SVG Export Plug-In . SVG Version: 6.00 Build 0)  -->
<svg version="1.1" id="레이어_1" xmlns="http://www.w3.org/2000/svg" xmlns:xlink="http://www.w3.org/1999/xlink" x="0px"
	 y="0px" viewBox="0 0 595.28 202" style="enable-background:new 0 0 595.28 202;" xml:space="preserve">
<style type="text/css">
	.st0{fill:none;}
	.st1{fill:#926B9E;}
	.st2{fill:#8C6797;}
	.st3{fill:#E6C06D;}
</style>
<g>
	<rect x="249.47" y="46.76" class="st0" width="21.61" height="10.36"/>
	<polygon class="st0" points="107.27,66.03 107.27,111.83 126.12,109.49 109.46,66.03 	"/>
	<path class="st1" d="M185.96,33.77c-0.58-0.49-1.56-0.73-2.92-0.73h-19.27c-1.36,0-2.34,0.24-2.92,0.73
		c-0.58,0.49-0.87,1.46-0.87,2.92v68.6l26.86-3.34V36.69C186.84,35.23,186.55,34.26,185.96,33.77z"/>
	<path class="st1" d="M124.06,39.61c-0.78-2.04-1.82-3.65-3.14-4.82c-1.31-1.17-3.38-1.75-6.21-1.75H86.1
		c-2.53,0-4.11,0.49-4.74,1.46c-0.63,0.97-0.95,2.72-0.95,5.26v75.42l26.86-3.34v-45.8h2.19l16.66,43.46l22.69-2.82L124.06,39.61z"
		/>
	<path class="st1" d="M206.4,76.4H314c1.36,0,2.34-0.24,2.92-0.73c0.58-0.49,0.88-1.46,0.88-2.92V60.78c0-1.46-0.29-2.43-0.88-2.92
		c-0.58-0.49-1.56-0.73-2.92-0.73h-14.89V46.76h14.16c1.36,0,2.34-0.24,2.92-0.73c0.58-0.49,0.87-1.46,0.87-2.92V31.14
		c0-1.46-0.29-2.43-0.87-2.92c-0.58-0.49-1.56-0.73-2.92-0.73H207.13c-1.36,0-2.34,0.24-2.92,0.73c-0.58,0.49-0.87,1.46-0.87,2.92
		v11.97c0,1.46,0.29,2.44,0.87,2.92c0.58,0.49,1.56,0.73,2.92,0.73h14.31v10.36H206.4c-1.36,0-2.34,0.24-2.92,0.73
		c-0.58,0.49-0.88,1.46-0.88,2.92v11.97c0,1.46,0.29,2.44,0.88,2.92C204.07,76.16,205.04,76.4,206.4,76.4z M254.57,44.77h15.56
		c2.82,0,5.1,2.28,5.1,5.1v2.16c0,2.82-2.28,5.1-5.1,5.1h-15.56c-2.82,0-5.1-2.28-5.1-5.1v-2.16
		C249.47,47.05,251.75,44.77,254.57,44.77z"/>
	<path class="st1" d="M321.88,81.36H198.66c-1.36,0-2.34,0.24-2.92,0.73c-0.58,0.49-0.88,1.46-0.88,2.92v12.84
		c0,1.46,0.29,2.44,0.88,2.92c0.03,0.02,0.08,0.03,0.11,0.05l129.79-16.12c-0.04-1.26-0.3-2.17-0.84-2.62
		C324.22,81.6,323.24,81.36,321.88,81.36z"/>
	<path class="st1" d="M355.6,78.88c0-1.07,0.15-1.82,0.44-2.26c0.29-0.44,0.97-0.66,2.05-0.66h37.98l10.86-1.35
		c0.3-0.55,0.5-1.25,0.5-2.3v-29.2c0-5.35-1.05-9.29-3.14-11.82c-2.09-2.53-5.77-3.8-11.02-3.8h-61.9c-1.36,0-2.34,0.24-2.92,0.73
		c-0.58,0.49-0.88,1.46-0.88,2.92v13.43c0,1.46,0.29,2.44,0.88,2.92c0.58,0.49,1.56,0.73,2.92,0.73h45.69c0.97,0,1.61,0.15,1.9,0.44
		c0.29,0.29,0.44,0.93,0.44,1.9v3.79c0,0.88-0.17,1.48-0.51,1.82c-0.34,0.34-1.05,0.51-2.12,0.51h-45.4c-1.36,0-2.34,0.24-2.92,0.73
		c-0.58,0.49-0.88,1.46-0.88,2.92v21.9c0,0.77,0.04,1.7,0.07,2.43l28-2.74L355.6,78.88z"/>
	<path class="st1" d="M451.38,31.14c0-1.46-0.29-2.43-0.88-2.92c-0.58-0.49-1.56-0.73-2.92-0.73h-20.44c-1.36,0-2.34,0.24-2.92,0.73
		c-0.59,0.49-0.88,1.46-0.88,2.92v41.43l28.03-3.48V31.14z"/>
	<path class="st1" d="M403.64,75.96c1.36,0,2.34-0.24,2.92-0.73c0.17-0.14,0.25-0.4,0.37-0.62l-10.86,1.35H403.64z"/>
</g>
<g>
	<path class="st2" d="M222.22,143.39c0.03,3.84,0.06,7.67,0.09,11.51c0.03,3.84-0.06,7.68-0.26,11.51
		c-8.41-10.94-16.68-21.81-24.8-32.6c-1.24-1.65-2.46-3.32-3.7-4.97l-9.98,1.11c10.76,14.36,21.62,28.7,32.62,43.01
		c0.47,0.8,1.05,1.45,1.75,1.96c0.93,0.8,1.86,1.53,2.79,2.17c0.93,0.65,2.03,0.97,3.3,0.96c1.62-0.01,2.86-0.45,3.72-1.32
		c0.86-0.86,1.58-1.85,2.15-2.97c0.34-0.61,0.62-2,0.84-4.17c0.21-2.17,0.37-4.77,0.46-7.8c0.09-3.03,0.15-6.29,0.19-9.77
		c0.03-3.49,0.06-6.79,0.1-9.92c0.03-3.13,0.04-5.91,0.02-8.33c-0.02-2.42-0.03-4.14-0.04-5.15l-0.03-4.02l-9.2,1.03
		C222.28,131.54,222.28,137.45,222.22,143.39z"/>
	<path class="st2" d="M135.68,152.32l0.17,15.3c0,1.01-0.06,2.09-0.17,3.26c-0.12,1.16-0.06,2.24,0.17,3.25
		c0.23,1.11,0.7,2.04,1.39,2.8c0.7,0.76,1.73,1.13,3.12,1.13c1.27,0,2.34-0.38,3.21-1.13c0.87-0.76,1.3-1.69,1.3-2.8
		c0-11.31-0.06-22.54-0.17-33.7c-0.02-2.08-0.07-4.2-0.1-6.29l-9.12,0.95C135.54,140.8,135.59,146.52,135.68,152.32z"/>
	<path class="st2" d="M350.5,174.06h-0.69c-8.68,0.7-17.3,1.16-25.86,1.36c-8.56,0.2-17.18,0.3-25.86,0.3c-1.04,0-2.95,0-5.73,0
		c-2.78,0-5.64-0.03-8.59-0.08c-2.95-0.05-5.7-0.23-8.24-0.53c-2.55-0.3-4.05-0.76-4.51-1.36c-0.23-0.3-0.46-0.98-0.7-2.04
		c-0.23-1.06-0.43-2.22-0.61-3.49c-0.17-1.26-0.35-2.5-0.52-3.71c-0.17-1.21-0.26-2.07-0.26-2.57h7.64c19.89,0,39.85-0.3,59.87-0.91
		c1.62,0,3.12-0.15,4.51-0.45c1.27-0.3,2.4-0.78,3.38-1.44c0.98-0.66,1.76-1.49,2.34-2.5c0.35-0.7,0.63-1.64,0.87-2.8
		c0.23-1.16,0.4-2.4,0.52-3.71c0.11-1.31,0.2-2.6,0.26-3.86c0.06-1.26,0.09-2.3,0.09-3.1c0-2.02-0.12-3.74-0.35-5.15
		c-0.23-1.41-0.72-2.58-1.48-3.48c-0.75-0.91-1.88-1.56-3.38-1.97c-1.5-0.4-3.47-0.66-5.9-0.76c-2.43-0.1-4.86-0.15-7.29-0.15
		c-2.43,0-4.86,0-7.29,0c-7.06,0-14.06,0.13-21,0.38c-6.94,0.25-13.94,0.58-21,0.98c-3.36,0.21-6.68,0.38-9.98,0.53
		c-3.3,0.15-6.62,0.38-9.98,0.68c-1.27,0.2-2.31,0.66-3.12,1.36c-0.81,0.71-1.21,1.62-1.21,2.73c0,1.01,0.4,1.85,1.21,2.5
		c0.81,0.66,1.79,0.98,2.95,0.98h0.52c10.76-0.6,21.4-1.18,31.93-1.74c10.53-0.55,21.17-0.83,31.93-0.83c2.31,0,4.71,0,7.2,0
		c2.49,0,4.89,0.1,7.2,0.3v0.61l0.17,0.91c0,0.81,0,1.77,0,2.88c0,1.11-0.06,2.25-0.17,3.41c-0.12,1.16-0.23,2.27-0.35,3.33
		c-0.12,1.06-0.23,1.95-0.35,2.65c-0.93,0.2-2.37,0.3-4.34,0.3c-1.97,0-3.47,0-4.51,0l-30.72,0.45c-5.2,0.1-10.33,0.18-15.36,0.23
		c-5.03,0.05-10.15,0.08-15.36,0.08c-2.78,0-4.89,0.45-6.33,1.36c-1.45,0.91-2.17,2.68-2.17,5.3c0,1.82,0.14,3.64,0.43,5.45
		c0.29,1.82,0.55,3.58,0.78,5.3c0.58,3.94,2.02,6.69,4.34,8.26c2.31,1.56,5.67,2.5,10.06,2.8c5.09,0.3,10.18,0.48,15.27,0.53
		c5.09,0.05,10.18,0.08,15.27,0.08c5.55,0,11.08-0.05,16.57-0.15c5.49-0.1,11.02-0.35,16.57-0.76c3.93-0.2,7.69-0.51,11.28-0.91
		c1.27-0.2,2.28-0.66,3.04-1.36c0.75-0.71,1.13-1.61,1.13-2.73c0-1.01-0.41-1.84-1.21-2.5C352.64,174.39,351.66,174.06,350.5,174.06
		z"/>
	<path class="st2" d="M251.67,122.71c6.25,0.21,12.52,0.36,18.83,0.45c6.3,0.1,12.58,0.15,18.83,0.15c7.75,0,15.5-0.05,23.25-0.15
		c7.75-0.1,15.5-0.25,23.25-0.45c4.63-0.1,9.25-0.2,13.88-0.3c4.63-0.1,9.25-0.15,13.88-0.15c1.27,0,2.4-0.4,3.39-1.21
		c0.98-0.81,1.47-1.76,1.47-2.88c0-1.11-0.38-1.92-1.13-2.43c-0.75-0.5-1.68-0.85-2.78-1.06c-1.1-0.2-2.23-0.28-3.38-0.23
		c-1.16,0.05-2.14,0.08-2.95,0.08c-3.7,0-7.37,0.08-11.02,0.23c-3.64,0.15-7.32,0.28-11.02,0.38c-7.75,0.21-15.47,0.36-23.17,0.46
		c-1.79,0.02-3.59,0.02-5.39,0.03l-64.96,6.76L251.67,122.71z"/>
	<path class="st2" d="M511.61,170.27c-1.04-0.41-2.08-0.76-3.12-1.06c-1.04-0.3-2.08-0.71-3.12-1.21
		c-6.59-2.83-13.16-6.21-19.69-10.15c-6.54-3.94-12.7-7.87-18.48-11.81l-5.03-3.48l-1.21-0.91l1.04-1.36
		c0.34-0.61,0.92-1.44,1.73-2.5c0.81-1.06,1.62-2.17,2.43-3.33c0.81-1.16,1.53-2.3,2.17-3.41c0.63-1.11,0.96-1.97,0.96-2.57
		c0-0.91-0.43-1.72-1.3-2.43c-0.87-0.7-1.82-1.06-2.86-1.06c-1.85,0-3.3,0.71-4.34,2.12c-1.28,1.82-2.52,3.69-3.73,5.6
		c-1.22,1.92-2.51,3.79-3.9,5.6c-4.4,5.75-9.11,10.8-14.14,15.14c-5.03,4.34-11.02,8.23-17.96,11.66c-1.97,1.01-3.88,1.89-5.73,2.65
		c-1.85,0.76-3.7,1.54-5.55,2.35c-0.93,0.51-1.65,1.03-2.17,1.59c-0.52,0.55-0.78,1.29-0.78,2.19c0,0.91,0.43,1.72,1.3,2.43
		c0.87,0.7,1.82,1.06,2.86,1.06c0.58,0,1.3-0.13,2.17-0.38c0.87-0.25,1.76-0.58,2.69-0.98c0.92-0.4,1.79-0.79,2.6-1.14
		c0.81-0.36,1.5-0.68,2.08-0.98c7.17-3.13,13.65-6.81,19.43-11.06c5.78-4.24,11.05-9.09,15.79-14.54c1.73,1.31,4.1,2.93,7.11,4.85
		c3.01,1.92,6.27,3.96,9.81,6.14c3.53,2.17,7.2,4.34,11.02,6.51c3.82,2.17,7.43,4.14,10.85,5.91c3.41,1.76,6.45,3.21,9.11,4.32
		c2.66,1.11,4.68,1.67,6.07,1.67c1.27,0,2.4-0.4,3.38-1.21c0.98-0.81,1.47-1.77,1.47-2.88
		C514.56,172.09,513.57,170.98,511.61,170.27z"/>
	<path class="st2" d="M406.55,121.95c3.76,0.01,7.2-0.01,10.32-0.04c4.05-0.05,8.04-0.25,11.97-0.59c3.93-0.35,7.92-0.7,11.96-1.05
		l9.71-1.02c1.15-0.22,2.13-0.68,2.93-1.4c0.8-0.71,1.2-1.63,1.19-2.74c-0.01-0.91-0.45-1.71-1.33-2.41
		c-0.87-0.7-1.83-1.04-2.87-1.03l-0.69,0.01c-5.55,0.47-11.07,1.01-16.55,1.63c-5.49,0.62-11.01,0.96-16.56,1.02
		c-1.04,0.01-2.72,0.01-5.03-0.02c-2.32-0.02-4.72-0.1-7.2-0.22c-2.49-0.12-4.78-0.37-6.86-0.75c-2.09-0.38-3.43-0.92-4.01-1.62
		c-1.05-1.3-1.77-3.03-2.14-5.2c-0.11-0.65-0.19-1.22-0.28-1.81l-8.98,1.04c0.32,2.01,0.78,3.96,1.51,5.79
		c0.71,1.61,1.39,2.91,2.04,3.92c0.65,1,1.47,1.85,2.46,2.54c0.99,0.7,2.12,1.26,3.4,1.7c1.28,0.44,2.84,0.85,4.7,1.23
		C399.35,121.61,402.79,121.94,406.55,121.95z"/>
	<path class="st2" d="M484.35,122.06v9.09c0,0.91,0.43,1.72,1.3,2.42c0.87,0.71,1.82,1.06,2.86,1.06c2.2,0,3.58-0.66,4.16-1.97
		c0.58-1.31,0.87-2.68,0.87-4.09c0-7.87-0.12-15.68-0.35-23.4c-0.13-4.37-0.14-8.76-0.19-13.14L483.75,93
		c0.02,3.58,0.08,7.13,0.08,10.74L484.35,122.06z"/>
</g>
<g>
	<path class="st3" d="M22.24,135.61l-0.27-2.19c-0.16-1.33,0.79-2.54,2.12-2.71l553.08-67.47c1.33-0.16,2.54,0.79,2.71,2.12
		l0.27,2.19c0.16,1.33-0.79,2.54-2.12,2.71L24.95,137.72C23.62,137.89,22.41,136.94,22.24,135.61z"/>
</g>
</svg>
